<?xml version="1.0" encoding="utf-8"?>
<!-- Generator: Adobe Illustrator 22.0.1, SVG Export Plug-In . SVG Version: 6.00 Build 0)  -->
<svg version="1.1" id="Layer_1" xmlns="http://www.w3.org/2000/svg" xmlns:xlink="http://www.w3.org/1999/xlink" x="0px" y="0px"
	 viewBox="0 0 1151.4 346.9" style="enable-background:new 0 0 1151.4 346.9;" xml:space="preserve">
<style type="text/css">
	.st0{fill:#00A887;stroke:#00A887;stroke-width:1.267;stroke-miterlimit:10;}
	.st1{fill:#DE4696;}
	.st2{fill:#FFFFFF;}
	.st3{fill:#00A887;}
</style>
<title>cucumber-logo-400</title>
<g>
	<circle class="st0" cx="173.3" cy="173.5" r="173.3"/>
	<path class="st1" d="M197.5,136.7c-10.3,10.9-16,22.6-12.7,26c3.3,3.4,14.3-2.7,24.5-13.6C219.6,138.2,207.8,125.8,197.5,136.7z"/>
	<g>
		<g id="XMLID_1_">
			<g>
				<g>
					<path class="st2" d="M275.5,104.8c-1.9-3-4.3-4.2-6.1-5.1c-1.1-0.5-1.8-0.9-2.7-1.7c-0.9-0.8-2-2.8-3-4.6c-1.6-2.9-3.3-6-6-7.9
						c-1.8-1.4-3.7-3-5.7-4.8c-4.1-3.6-8.3-7.3-13.3-9.6c-5.9-5.8-13.8-7.6-21.4-9.3c-1.5-0.4-3.1-0.7-4.6-1.1c-4-1-8-2.3-12.2-3.7
						c-8-2.6-16.3-5.3-25.3-6.1c-3.4-0.3-6.7-0.3-9.9,0c-2.6,0.2-4.7,1.2-6.4,2c-1,0.5-2,0.9-2.7,1c-0.5,0.1-1.4,0-2.3-0.1
						c-1.4-0.1-3-0.3-4.9,0.1c-2.6,0.5-4.8,1.4-6.8,2.2c-2.8,1.1-4.9,2-7.1,1.4l-4.3-1.1l-1.1,1.9l-1.6,0l-1.7,2.6
						c-3.8,5.7-10,8.3-17.2,11.3c-7.2,3-15.3,6.4-21.1,13.7c-1.9,2.4-3.3,4.9-4.5,7c-2,3.6-3.4,6.1-6.6,7.9l-1.8,1l-0.8,1.9
						c-2.2,5.5-4.7,11.2-8.2,15l-1.3,1.4L65,122c-0.5,5.3-3.5,10.9-6.3,15.9l-0.9,1.6l0.2,1.8c0.3,3.7-0.7,7.1-1.7,10.8
						c-1,3.4-2,7-2.1,10.9c0,4.9,1.2,11.1,2.4,16.5l0.4,1.8c0.6,2.9,1,6,1.4,9c0.4,2.6,0.7,5.4,1.2,8.1c0.7,4,2.5,7.3,3.9,9.9
						c0.7,1.3,1.4,2.5,1.8,3.6c0.4,0.9,0.6,2.2,0.8,3.6c0.1,0.6,0.2,1.2,0.3,1.8l-1.5-0.3l1.9,2.1c0.2,0.7,0.3,1.4,0.6,2.1
						c4.5,13.6,10.7,19.6,18.6,27.1c1.7,1.7,3.6,3.4,5.6,5.4c2,2,3.7,4.2,5.5,6.6c0.4,0.5,0.8,1.1,1.2,1.6l-1.8,8.2l5-4.3
						c1.7,1.9,3.5,3.7,5.7,5.4c1.8,1.4,3.7,3,5.6,4.6c7.3,6.1,14.8,12.4,22.7,13.9c3.9,0.7,8.1,1.9,12.2,3c4.9,1.3,9.6,2.6,13.7,3.2
						c0.7,0.1,1.4,0.2,2.1,0.2h0c5.5,0.5,10.7,0,15.6-0.5c2.7-0.3,5.2-0.5,7.6-0.6c1.1,0,2.1,0,3,0c3.9,0,6.9,0,11.4-1.7
						c2.2-0.8,4.6-1.6,7-2.4c5-1.7,10.2-3.4,14.3-5.3c5-2.2,9.8-5.9,14.6-9.5c2.6-2,5.1-3.9,7.4-5.3c0.8-0.1,2-0.5,3.2-1.3
						c5.5-4.2,8.7-9.4,11.7-14.5c1.3-2.2,2.7-4.5,4.3-6.7c0.7-0.9,1.4-1.7,2.1-2.3l1-0.9c0.1-1.5,0.6-3,1.6-4.4l-2-2.5
						c-0.4-0.6-0.8-1.2-1-1.9l-0.4-1.3c-1.2-1-2.3-1.4-4.4-1.3c-2.6,0.1-5.2,1.6-7.9,2.7c-1.2,1.2-2.4,2.9-2.8,5.1
						c-2,1.4-3.3,3-4,4.8c-1.4,0.8-2.4,1.8-3.1,2.9l-1.2-1.3l-1.6,2.5l-1.4-0.3l-0.3,2.9l-0.7,1c-0.3,0.4-0.6,0.8-0.9,1.1
						c-0.4,0.5-0.8,0.9-1.2,1.5c-3.2,1.4-5.7,3.5-7.8,5.3c-3.2,2.7-4.9,4-7.5,3.8L216,265l-1.9,3.4c-0.2,0.1-0.7,0.4-1.1,0.5
						c-0.7,0.3-1.6,0.7-2.6,1.3l-2-0.4l-2,1.5c-3.5,2.6-5.3,3.5-10.5,3.9l-1.9,0.1l-1.4,1.2c-1.1,0.9-6,2.4-12.5,2.9
						c-3.5,0.2-6.6,0.2-9,0c-2.7-0.2-3.7-0.7-3.9-0.8l-0.8-0.7l-1.2-0.4c-0.5-0.2-1-0.3-1.6-0.3l1.3-3.5l-4.2,1l0-0.1l-9.6,1.8
						c-1.2,0.2-3.1-0.6-5.3-1.5c-2.3-1-4.8-2.1-7.8-2.5c-0.7-0.8-1.7-1.5-2.7-2l0-0.4l-3.1-1.4c-4.8-2.2-8.6-5.5-12.6-9
						c-1.3-1.2-2.7-2.4-4.1-3.5c-0.1-0.4-0.3-0.8-0.5-1.2l1.1-3.4c-1.2-0.8-2.2-1.9-2.9-3.2l-3.5,0.4c-1.5-1.9-3.6-3.4-5.3-4.4
						c-1.5-4-4.4-6.2-6.4-7.7c-0.4-0.3-0.9-0.7-1.2-0.9l0-0.4l5-5.4l-10.6-1.4c-0.9-1.4-1.9-2.5-2.9-3.4c0-0.3,0-0.6,0-0.9l-0.1-5.6
						l-0.9,0L87,217l-2-0.4c-0.1-0.6-0.2-1.4-0.4-2.1l-1.1,0.1c-0.2-0.9-0.4-1.6-0.7-2.3l7.2-4.8l-9.8-3.6c-0.1-0.2-0.2-0.5-0.3-0.8
						c0.2-0.5,0.3-1.2,0.3-1.8c0-1.1-0.3-3.9-3.4-5.7l-0.1-0.1c-0.2-0.2-0.5-0.4-0.9-0.7c-0.1-1.5-0.3-2.9-0.5-4.2
						c-0.3-1.8-0.6-3.5-0.2-4.3l3.1-6.6l-5.1-1.1c0-0.6,0-1.1,0-1.6c0.1-2.7,0-4.9-1.1-7.6c1.5-3.3,1.4-7-0.3-10.6
						c0.4-1.2,0.6-2.4,0.6-3.7c2-2.8,2.4-6.4,2.7-9.2c2.9-2.7,3.3-7,3.4-9.5c0.1,0,0.2,0,0.3-0.1l4.5-0.8l0.2-4.6
						c0.1-2.2-0.6-3.8-1.4-5c0.9-1.3,1.7-2.8,2.7-4.5l4.2-6.3c0.8-1.3,1.6-2.5,2.5-3.8c3.1-5,5.8-9.3,10.1-10.6l2.4-0.7l1.2-2.2
						c0.7-1.2,1.1-2.5,1.4-3.6l0,0l1.6,0.5l2.4-2.3c0.5-0.5,1-1,1.6-1.5c3.2-3.1,7.6-7.4,10.7-7.3l5.5,0.1l0.4-5.4
						c-0.1,1.7-1.7,2.9-2.6,2.9c-0.6-0.1-2.2-0.8-3.2-2.4c1.7-0.9,3.3-1.9,4.9-3l0,0l2.5,5.3c0,0,0.1,0,0.1,0l4-1.9l0,0
						c0.4,0,0.7,0.1,1.1,0.1l5.9,0.5l1.3-4.7c0.2-0.8,0.4-1.1,0.5-1.1c0.4-0.3,2.3-0.5,3.4-0.6c1-0.1,2.2-0.2,3.4-0.4
						c1,0.5,2.1,0.8,3.2,0.9c2,0.2,3.7-0.2,5.3-0.6c0.6-0.1,1.3-0.3,1.8-0.4l2.3,3.1l4-1.3c2.6-0.9,5.2-1.1,8.5-0.8
						c2.2,0.2,4.3,0.6,6.6,1c2.4,0.5,5,0.9,7.6,1.2c2.6,0.2,5,0.2,7.3-0.1c1.2,1.2,2.9,2.5,5.3,3.3l0.3,2.9l4.2-1.9l0.7,0.1l0.5-0.7
						l1.8-0.8c0.4-0.2,0.9-0.4,1.2-0.3c0.4,0,1.2,0.4,2,0.8c1.7,0.8,4,1.9,7,2.1c3,3.2,7,6,12.3,8.5l5.5,2.7l0.3-0.8
						c0,0,0,0,0.1,0.1c1.1,1,3,2.7,3.6,3.6l-0.2,3.8l4.2,1.4c3.3,1.3,10.3,9,10,11.6l-1,5.3l5.2,1.4c0.8,0.2,1.6,0.4,2.5,0.6
						c0.4,0.1,0.8,0.2,1.2,0.3c0,0.5,0.1,1.1,0.2,1.6c1.2-0.3,2.4-0.4,3.8-0.2c1.8-1.1,4.1-1.6,6.5-1.1c0.3-0.3,0.6-0.6,0.9-0.9
						c0.8-1.4,1.5-2.9,2.2-4.5c0.5-1.3,1-2.6,1.5-3.9C277.6,108.7,276.7,106.7,275.5,104.8z M240.8,254.2l2.1,3.2l-0.5-0.3l-2.4,2.3
						c-0.2-0.3-0.3-0.7-0.4-1.1C239.2,256.9,239.2,255.2,240.8,254.2z M79.5,211.6l-1,3.2l-0.8,0c-0.1-0.4-0.1-0.8-0.2-1.3
						c-0.1-0.7-0.2-1.3-0.3-2C77.9,211.4,78.8,211.4,79.5,211.6z M166.2,62.6c-0.1-0.1-0.2-0.1-0.3-0.2c0.2-0.1,0.3-0.1,0.5-0.1
						c0.8-0.1,1.5-0.1,2.3-0.1C167.8,62.2,167,62.4,166.2,62.6z"/>
				</g>
			</g>
		</g>
	</g>
	<g>
		<path class="st2" d="M173.9,159.3L173.9,159.3c-6.2,0-9.5-15.1-9.5-29.2c0-8.8,5-12.8,9.6-12.8c2.3,0,4.5,1,6.1,2.8
			c1.6,1.7,3.4,4.7,3.4,10.1C183.5,144.3,180.1,159.3,173.9,159.3L173.9,159.3z M174,119.8c-3.4,0-7.1,3.2-7.1,10.2
			c-0.1,16.5,4,26.6,7,26.6l0,1.3v-1.3c3,0,7.1-10.1,7.2-26.6c0-4.5-1.4-7-2.7-8.3C177.2,120.6,175.6,119.8,174,119.8L174,119.8z"/>
		<path class="st2" d="M174,230.6c-2.3,0-4.5-1-6.2-2.8c-1.6-1.6-3.4-4.7-3.4-10.1c0-14.1,3.4-29.2,9.6-29.2
			c6.2,0,9.5,15.1,9.5,29.2C183.5,226.6,178.6,230.6,174,230.6L174,230.6z M174.1,191.1c-3,0-7.1,10.1-7.2,26.6c0,4.5,1.4,7,2.7,8.3
			c1.2,1.3,2.8,2,4.4,2c3.4,0,7.1-3.2,7.1-10.2C181.1,201.3,177,191.1,174.1,191.1L174.1,191.1z"/>
		<path class="st2" d="M215.3,184c-13.3,0-27.4-3.5-27.4-10c0-6.5,14.2-10.1,27.7-10.2c8,0,12.2,5.1,12.2,10
			c0,4.8-3.8,10.1-12.2,10.1H215.3L215.3,184z M215.6,166.4c-15.7,0.1-25.3,4.4-25.3,7.6c0,3.1,9.5,7.4,25,7.4h0.3
			c6.7,0,9.7-3.9,9.7-7.5C225.3,170.3,222.2,166.4,215.6,166.4L215.6,166.4z"/>
		<path class="st2" d="M132.7,184h-0.3c-8.4,0-12.2-5.3-12.2-10.1c0-5,4.2-10,12.2-10c13.5,0,27.7,3.6,27.7,10.2
			C160.1,180.5,146,184,132.7,184L132.7,184z M132.5,166.4c-6.7,0-9.7,3.9-9.8,7.5c0,3.6,3,7.5,9.7,7.5h0.3c15.4,0,24.9-4.3,25-7.4
			C157.7,170.9,148.1,166.5,132.5,166.4L132.5,166.4z"/>
		<path class="st2" d="M160.6,165c-5.2,0-14.4-6-22.8-14.9c-3.9-4.2-5.3-9.2-3.6-13.3c1.3-3.4,4.4-5.5,8-5.5c2.2,0,5.6,0.8,9.2,4.6
			c9.5,10,17.1,23.2,12.7,27.8C163.3,164.5,162.1,165,160.6,165L160.6,165z M142.2,133.8c-2.6,0-4.8,1.5-5.7,3.9
			c-1.3,3.2-0.1,7.1,3.1,10.5c7.9,8.3,16.5,14.2,21.1,14.2c0.8,0,1.4-0.2,1.7-0.6c2.1-2.2-1.7-12.4-12.7-24.1
			C146.6,134.5,143.9,133.8,142.2,133.8L142.2,133.8z"/>
		<path class="st2" d="M205.8,216.6c-2.2,0-5.6-0.8-9.2-4.6c-9.5-10-17.1-23.2-12.7-27.8c0.8-0.9,2-1.3,3.5-1.3
			c5.2,0,14.4,6,22.8,14.9c3.9,4.2,5.3,9.2,3.7,13.3C212.5,214.5,209.4,216.6,205.8,216.6L205.8,216.6z M187.3,185.4
			c-0.8,0-1.4,0.2-1.7,0.6c-2.1,2.2,1.7,12.4,12.7,24.1c3,3.2,5.7,3.9,7.5,3.9c2.6,0,4.8-1.5,5.7-3.9c1.3-3.2,0.1-7.1-3.1-10.5
			C200.6,191.3,191.9,185.4,187.3,185.4L187.3,185.4z"/>
		<path class="st2" d="M142.2,216.6c-3.6,0-6.7-2.1-8-5.5c-1.6-4.2-0.2-9.2,3.7-13.3c8.4-8.8,17.6-14.8,22.9-14.8
			c1.5,0,2.7,0.5,3.5,1.4c4.4,4.6-3.4,17.7-12.9,27.7C147.7,215.8,144.4,216.6,142.2,216.6L142.2,216.6z M160.7,185.6
			c-4.6,0-13.2,5.8-21.1,14c-3.2,3.4-4.4,7.3-3.2,10.5c0.9,2.4,3.1,3.9,5.7,3.9c1.7,0,4.4-0.7,7.4-3.8c11.1-11.6,15-21.8,12.9-24
			C162.1,185.8,161.5,185.6,160.7,185.6L160.7,185.6z"/>
	</g>
	<g>
		<path class="st2" d="M255.9,213.8l-2.9-1.5c1.4-2.7,0.1-4.2-2.3-6.8c-0.7-0.8-1.4-1.5-2.1-2.4c-1.3-1.7-2.2-4-2.7-6.9
			c-0.2-0.7-0.4-1.6-0.7-2.5c-0.6-1.8-1.2-3.9-1.2-6.2c0-3.3,0.3-5,0.7-6.7c0.3-1.5,0.6-3,0.6-6c0-3.2-0.1-5.7-0.2-7.6
			c-0.1-0.9-0.5-1.5-1-2.2c-0.2-0.3-0.5-0.7-0.7-1c-0.3-0.6-0.3-0.6-0.9-0.8c-0.4-0.1-0.7-0.3-1.1-0.5c-0.7-0.3-1.4-0.7-2.3-0.8
			c-0.6-0.1-1.5-0.4-1.8-1.9c0-0.1,0-0.1,0-0.2c-0.3-0.7-0.2-1.3-0.1-1.7c0,0,0-0.1,0-0.1c0-0.5,0.1-0.9,0.4-1.2
			c-0.1-0.4-0.2-1.1,0.3-1.6c0.3-0.4,0.8-0.7,1.3-0.7c1.4-0.1,2.7-0.1,4-0.1c2,0,3.9-0.1,5.5-0.4c0.7-0.1,1.3-0.4,1.8-0.6
			c0.6-0.2,1.2-0.5,1.8-0.6c1-0.2,1.9,0.1,2.4,0.4c0.1,0,0.2,0.1,0.3,0.1c0,0,0.1,0,0.2,0c0.2,0,0.4-0.1,0.7-0.1
			c0.4,0,1.2,0.1,1.7,1l0.1,0.1c0.3,0.5,0.7,1.1,0.7,2.1c0,3.3,0.1,5,0.2,6.7c0.1,1.7,0.2,3.4,0.2,6.8c0,3.3,0.1,4.9,0.2,6.6
			c0.1,1.7,0.2,3.4,0.2,6.9c0,1.6-0.2,3-0.5,4.3c-0.2,1.3-0.4,2.4-0.3,3.2c0.2,1.6,0.8,2.9,1.4,4.1l0.2,0.5c0.4,0.9,1,1.5,2,2
			l0.4,0.2c0.9,0.5,1.9,1.1,3,1.1c1.2,0,2.5-0.6,4-1.3c0.9-0.4,1.8-0.8,2.7-1.1c0.7-0.2,1.3-0.4,2-0.6c1.5-0.5,2.6-0.8,3.4-1.4
			c0-0.1,0-0.1,0-0.3c0-0.6,0.3-1.1,0.4-1.5c0,0,0,0,0,0c0-4.3,0.1-6.5,0.1-8.7c0.1-2.2,0.1-4.4,0.1-8.8c0-1.7-0.4-3.2-0.8-4.6
			c-0.3-1.1-0.6-2.1-0.6-3.1c0-1.2,0.3-2.3,0.6-3.2c0.1-0.2,0.2-0.6,0.3-0.8c-0.2-0.1-0.6-0.2-0.8-0.2c-0.4-0.1-0.7-0.2-1.1-0.3
			c-0.6-0.2-1.1-0.7-1.6-1.1c-0.1-0.1-0.1-0.1-0.2-0.2l0,0.6l-1-1.4c-0.3,0.2-0.6,0.3-1,0.3h0c-0.7,0-1.3-0.4-1.6-1.1
			c-0.5-1,0-1.8,0.3-2.2c0-0.1,0-0.2,0-0.3l-0.1-0.2l0.3-0.6l0.1-4.6l2.4,3.4c2-0.2,3.8-0.9,5.4-1.5c1-0.4,1.9-0.7,2.8-0.9
			c0.9-0.2,1.7-0.3,2.6-0.3c1,0,1.8,0.1,2.5,0.2c0.4,0.1,0.7,0.1,1,0.1l0.4,0c0.3,0,1.3,0,2,1c0.1,0.1,0.2,0.1,0.3,0.2
			c0.7,0.4,1.8,1.1,1.8,2.4c0,3.7-0.4,5.7-0.7,7.5c-0.3,2-0.6,3.7-0.5,7.4c0.1,3.3,0.3,5.1,0.5,6.8c0.2,2.2,0.4,4,0.4,8.3
			c0,2.2,0.1,4.1,0.3,5.8c0,0.5,0.1,1,0.1,1.5c0.1,1.8,0.4,2.6,0.8,3.5l0.2,0.5c0.1,0.2,0.2,0.4,0.2,0.5l0,0c0,0,0.1,0,0.3,0.1
			l0.3,0.1c0.9,0.4,1.8,0.7,3.2,0.7c0.6,0,2.3,0.5,2.9,1.6c0.5,1.1-0.1,1.9-0.7,2.4c0.4,0.6,0.3,1.2,0.1,1.7c-0.5,1-1.1,1.6-1.9,1.8
			c-0.2,0-0.4,0.1-0.6,0.1c-0.4,0.1-0.9,0.2-1.5,0.3c-0.1,0-0.3,0-0.5,0c-0.8,0-1.5-0.4-2-0.7c-0.2-0.1-0.4-0.2-0.6-0.3
			c-0.1,0.1-0.4,0.4-0.5,0.5c-0.6,0.7-1.3,1.5-2.5,1.6c-0.8,0.1-1.6,0-2.3-0.1c-0.4-0.1-0.8-0.1-1-0.1c-0.5,0.1-1.2,0.1-1.8,0.1
			l-0.5,0c-0.2,0-0.3,0-0.5,0c-1,0.1-1.6,0.1-2.1,0.1c-2.3,0-3.1-2.2-3.4-4.4c-2.4,1.9-4.4,3.1-6.4,3.8c-2.5,0.9-5.6,2-8.5,2
			c0,0,0,0,0,0C258.7,209.7,258,209.7,255.9,213.8C255.9,213.8,255.9,213.8,255.9,213.8L255.9,213.8z"/>
	</g>
	<path class="st1" d="M448.9,268.4c0,1.5,0,2.7,0.1,3.7c0.1,1,0.3,1.8,0.6,2.5c0.3,0.6,0.9,1.1,1.7,1.5c0.8,0.4,1.9,0.6,3.3,0.8
		c0.3,0.1,0.6,0.2,0.8,0.5c0.2,0.3,0.3,0.6,0.3,0.9c0,0.3-0.1,0.6-0.3,0.8c-0.2,0.3-0.4,0.4-0.8,0.4c-1.2,0-2.6-0.1-4.3-0.3
		c-1.7-0.2-3.5-0.3-5.2-0.3c-1.9,0-3.7,0.1-5.4,0.3c-1.8,0.2-3.4,0.3-4.8,0.3c-0.3,0-0.5-0.1-0.7-0.4c-0.2-0.3-0.3-0.5-0.3-0.8
		c0-0.3,0.1-0.7,0.3-0.9c0.2-0.3,0.4-0.4,0.8-0.5c1.5-0.2,2.6-0.4,3.4-0.8c0.8-0.3,1.4-0.8,1.7-1.4c0.4-0.6,0.6-1.4,0.6-2.3
		s0.1-2,0.1-3.4v-13c0-2.8,0-4.9-0.1-6.6c-0.1-1.6-0.3-2.9-0.6-3.8c-0.3-0.9-0.9-1.5-1.6-1.8c-0.7-0.3-1.8-0.5-3.2-0.6
		c-0.3,0-0.5-0.1-0.7-0.3c-0.2-0.2-0.3-0.5-0.4-0.8s0-0.6,0.1-0.8c0.1-0.3,0.4-0.4,0.7-0.4c1-0.1,2.4-0.3,4.3-0.7
		c1.9-0.4,4-0.8,6.2-1.4c0.1-0.1,0.3-0.1,0.7-0.1c0.3,0,0.6,0,0.7,0c0.6,0,1.1,0.2,1.5,0.7c0.4,0.5,0.6,1,0.5,1.7l-0.2,4.3
		c0,0.3,0.1,0.3,0.3,0.1c0.3-0.4,0.8-1,1.4-1.8c0.7-0.8,1.6-1.6,2.6-2.5c1.1-0.8,2.4-1.5,4-2.1c1.6-0.6,3.3-0.9,5.3-0.9
		c3.6,0,6.5,0.7,8.6,2.1c2.1,1.4,3.7,3.6,4.9,6.4c0.3-0.6,0.8-1.4,1.7-2.4c0.8-1,1.9-1.9,3.2-2.8c1.3-0.9,2.7-1.7,4.4-2.3
		c1.6-0.6,3.4-1,5.4-1c2.8,0,5.1,0.4,6.8,1.3c1.8,0.8,3.1,2,4.1,3.5c1,1.5,1.7,3.2,2,5.2c0.3,2,0.5,4.2,0.5,6.5v13.9
		c0,1.5,0,2.7,0.1,3.7c0.1,1,0.2,1.8,0.5,2.5c0.3,0.6,0.8,1.1,1.4,1.5c0.6,0.4,1.6,0.6,2.8,0.8c0.4,0.1,0.6,0.2,0.8,0.5
		c0.2,0.3,0.3,0.6,0.3,0.9c0,0.3-0.1,0.6-0.3,0.8c-0.2,0.3-0.4,0.4-0.8,0.4c-0.8,0-2-0.1-3.6-0.3c-1.6-0.2-3.3-0.3-5.1-0.3
		c-1.9,0-3.7,0.1-5.4,0.3c-1.7,0.2-3.3,0.3-4.6,0.3c-0.3,0-0.5-0.1-0.7-0.4c-0.2-0.3-0.3-0.5-0.3-0.8c0-0.3,0.1-0.7,0.3-0.9
		c0.2-0.3,0.4-0.4,0.8-0.5c1.4-0.2,2.5-0.4,3.2-0.8c0.7-0.3,1.3-0.8,1.6-1.4c0.3-0.6,0.6-1.4,0.6-2.3c0.1-0.9,0.1-2,0.1-3.4v-11.3
		c0-1.6-0.1-3.2-0.2-4.9c-0.1-1.7-0.4-3.3-0.9-4.7c-0.5-1.4-1.2-2.6-2.2-3.5c-1-0.9-2.4-1.4-4.2-1.4c-1.6,0-3.2,0.4-4.6,1.1
		c-1.4,0.8-2.7,1.7-3.7,2.9c-1.1,1.2-1.9,2.4-2.5,3.8c-0.6,1.4-0.9,2.7-0.9,4v13.3c0,1.7,0,3.1,0.1,4.1c0.1,1,0.2,1.8,0.5,2.4
		c0.3,0.6,0.8,1,1.4,1.3c0.6,0.3,1.6,0.5,2.8,0.7c0.4,0.1,0.6,0.2,0.8,0.5c0.2,0.3,0.3,0.6,0.3,0.9c0,0.3-0.1,0.6-0.3,0.8
		c-0.2,0.3-0.4,0.4-0.8,0.4c-0.8,0-2-0.1-3.6-0.3c-1.6-0.2-3.3-0.3-5.1-0.3c-1.9,0-3.7,0.1-5.4,0.3c-1.7,0.2-3.2,0.3-4.3,0.3
		c-0.3,0-0.5-0.1-0.7-0.4c-0.2-0.3-0.3-0.5-0.3-0.8c0-0.3,0.1-0.7,0.3-0.9c0.2-0.3,0.4-0.4,0.8-0.5c1.3-0.2,2.3-0.4,3-0.7
		c0.7-0.3,1.3-0.7,1.6-1.2c0.3-0.6,0.5-1.3,0.6-2.2c0.1-0.9,0.1-2.2,0.1-3.8v-11.3c0-1.6-0.1-3.2-0.2-4.9c-0.1-1.7-0.5-3.3-1-4.7
		c-0.5-1.4-1.3-2.6-2.4-3.5c-1.1-0.9-2.5-1.4-4.4-1.4c-2,0-3.7,0.4-5.1,1.1c-1.4,0.7-2.6,1.7-3.5,2.9c-0.9,1.2-1.6,2.5-2,3.9
		c-0.4,1.4-0.7,2.9-0.7,4.3V268.4z"/>
	<path class="st1" d="M549.8,269.6c0,2,0.2,3.5,0.6,4.3c0.4,0.8,1.1,1.2,2.2,1.2c0.6,0,1.2-0.1,1.6-0.2c0.4-0.1,1-0.5,1.8-0.9
		c0.2-0.1,0.4-0.1,0.6,0c0.2,0.1,0.4,0.3,0.5,0.5c0.1,0.2,0.2,0.4,0.3,0.7c0.1,0.3,0,0.5-0.2,0.7c-2.3,2.8-5,4.1-8.1,4.1
		c-1.7,0-3.1-0.5-4.3-1.4c-1.2-0.9-2.1-2-2.7-3.2c-0.1-0.3-0.3-0.3-0.5-0.1c-1.5,1.3-3.3,2.5-5.3,3.3c-2,0.9-4.6,1.3-7.6,1.3
		c-3.3,0-5.9-0.9-7.7-2.7c-1.8-1.8-2.7-4.3-2.7-7.6c0-4.2,2-7.4,5.9-9.7c3.9-2.3,9.6-3.4,17.1-3.4c0.1,0,0.2-0.1,0.3-0.4
		c0.1-0.3,0.1-1,0.1-2v-2.4c0-1.5-0.1-2.8-0.3-4.1c-0.2-1.3-0.6-2.4-1.2-3.4c-0.6-1-1.3-1.7-2.3-2.3c-1-0.6-2.2-0.8-3.7-0.8
		c-2.2,0-3.9,0.4-5.3,1.3c-1.3,0.8-2,1.9-2,3.3c0,0.6,0.2,1.3,0.6,1.9c0.4,0.6,0.6,1.2,0.6,1.9c0,0.8-0.4,1.6-1.2,2.4
		c-0.8,0.8-1.8,1.1-3,1.1c-1.6,0-2.7-0.4-3.4-1.3c-0.7-0.8-1-1.9-1-3.1c0-1.5,0.4-2.9,1.2-4.2c0.8-1.3,1.9-2.4,3.3-3.4
		c1.4-0.9,3-1.7,4.9-2.2s3.8-0.8,5.9-0.8c4.7,0,8.4,1.1,11.1,3.2c2.7,2.2,4,5.8,4,10.8V269.6z M541.5,260.9c0-0.6,0-1-0.1-1.2
		c-0.1-0.1-0.2-0.2-0.4-0.2c-4.8,0.4-8.4,1.4-10.7,3c-2.3,1.6-3.5,3.7-3.5,6.2c0,1.8,0.4,3.2,1.3,4.4c0.9,1.2,2.3,1.8,4.4,1.8
		c1.3,0,2.8-0.3,4.3-0.8c1.5-0.5,2.8-1.3,4-2.3c0.5-0.5,0.7-0.9,0.7-1.4V260.9z"/>
	<path class="st1" d="M580.5,268.4c0,1.5,0,2.7,0.1,3.7c0.1,1,0.4,1.8,0.9,2.5c0.5,0.6,1.3,1.1,2.5,1.5c1.1,0.4,2.7,0.6,4.8,0.8
		c0.4,0.1,0.6,0.2,0.8,0.5c0.2,0.3,0.3,0.6,0.3,0.9c0,0.3-0.1,0.6-0.3,0.8c-0.2,0.3-0.4,0.4-0.8,0.4c-2.5,0-4.7-0.1-6.7-0.3
		c-1.9-0.2-3.8-0.3-5.5-0.3c-1.9,0-3.7,0.1-5.6,0.3c-1.8,0.2-3.7,0.3-5.6,0.3c-0.3,0-0.5-0.1-0.7-0.4c-0.2-0.3-0.3-0.5-0.3-0.8
		c0-0.3,0.1-0.7,0.3-0.9c0.2-0.3,0.4-0.4,0.8-0.5c1.6-0.2,2.9-0.4,3.8-0.8c0.9-0.3,1.6-0.8,2-1.4c0.4-0.6,0.7-1.4,0.7-2.3
		c0.1-0.9,0.1-2,0.1-3.4v-12.8c0-2.9-0.1-5.1-0.2-6.8c-0.1-1.7-0.4-3-0.8-3.9c-0.4-0.9-1.1-1.5-2.1-1.8c-0.9-0.3-2.2-0.5-3.9-0.6
		c-0.3,0-0.5-0.1-0.7-0.4s-0.2-0.6-0.2-0.9c0-0.3,0.1-0.6,0.2-0.9c0.1-0.3,0.4-0.4,0.7-0.4c1.2-0.1,2.8-0.2,4.9-0.4
		c2.1-0.1,4.2-0.5,6.4-1.1c0.8-0.2,1.5-0.3,2-0.1c0.5,0.2,0.8,0.7,0.7,1.5l-0.2,5.6c0,0.1,0,0.2,0.1,0.2c0.1,0,0.1,0,0.3-0.1
		c1.2-2.5,2.7-4.4,4.5-5.9c1.8-1.5,4.2-2.2,7.2-2.2c2.5,0,4.3,0.6,5.4,1.9c1.2,1.3,1.8,2.8,1.8,4.6c0,1-0.4,1.9-1.1,2.7
		c-0.8,0.8-1.8,1.2-3.2,1.2c-1.3,0-2.3-0.3-2.8-1c-0.5-0.6-0.8-1.3-0.8-2.1c0-0.8-0.2-1.5-0.5-1.9c-0.3-0.5-1-0.7-2.1-0.7
		c-1.1,0-2.1,0.4-3,1.1c-0.9,0.7-1.7,1.6-2.3,2.6c-0.6,1-1.1,2-1.5,3.1c-0.4,1.1-0.5,1.9-0.5,2.5V268.4z"/>
	<path class="st1" d="M648.6,279.5c-0.9-0.1-1.9-0.1-2.8-0.2c-1-0.1-2-0.1-3-0.1c-1.2,0-2.3,0-3.5,0.1c-1.1,0.1-2.2,0.1-3.2,0.1
		c-0.4,0-0.7-0.1-0.9-0.4c-0.2-0.3-0.3-0.6-0.3-0.8c-0.5-2.5-1.2-4.8-2.3-6.9c-1.1-2.1-2.3-4-3.7-5.7c-1.4-1.6-2.9-2.9-4.5-3.9
		c-1.6-0.9-3.2-1.4-4.8-1.4v6.8c0,1.7,0,3.1,0.1,4.2c0.1,1.1,0.2,2,0.6,2.7c0.3,0.7,0.8,1.3,1.5,1.7c0.7,0.4,1.7,0.7,3.1,1
		c0.3,0.1,0.6,0.2,0.8,0.5s0.3,0.6,0.3,0.9c0,0.3-0.1,0.6-0.3,0.8c-0.2,0.3-0.4,0.4-0.8,0.4c-1.6,0-3.1-0.1-4.5-0.3
		c-1.3-0.2-2.9-0.3-4.7-0.3c-1.9,0-3.7,0.1-5.5,0.3c-1.8,0.2-3.7,0.3-5.5,0.3c-0.3,0-0.5-0.1-0.7-0.4c-0.2-0.3-0.3-0.5-0.3-0.8
		c0-0.3,0.1-0.7,0.3-0.9c0.2-0.3,0.4-0.4,0.8-0.5c1.6-0.2,2.9-0.4,3.8-0.8c0.9-0.3,1.6-0.8,2-1.4c0.4-0.6,0.6-1.4,0.7-2.3
		c0.1-0.9,0.1-2,0.1-3.4v-34.5c0-2.5-0.1-4.5-0.2-6c-0.1-1.5-0.4-2.6-1-3.5c-0.5-0.8-1.3-1.4-2.4-1.7c-1.1-0.3-2.5-0.5-4.4-0.7
		c-0.3,0-0.5-0.1-0.7-0.4c-0.1-0.3-0.2-0.6-0.3-0.9s0-0.6,0.2-0.9c0.1-0.3,0.4-0.4,0.7-0.4c2.1-0.1,4.4-0.3,7-0.5
		c2.5-0.2,4.9-0.7,7.1-1.3c0.8-0.2,1.4-0.2,1.6,0.1c0.3,0.3,0.4,0.7,0.5,1v37.4c1.1-0.7,2.2-1.5,3.2-2.4c1-0.9,1.9-1.8,2.7-2.7
		c0.8-0.9,1.6-1.8,2.3-2.7c0.7-0.9,1.3-1.6,1.8-2.3c1.2-1.5,1.7-2.6,1.5-3.3c-0.1-0.7-1.2-1.1-3-1.2c-0.3,0-0.5-0.1-0.7-0.4
		c-0.2-0.3-0.3-0.6-0.3-0.9c0-0.4,0.1-0.7,0.3-0.9c0.2-0.3,0.4-0.4,0.7-0.4c0.9,0,1.7,0,2.4,0.1c0.7,0.1,1.3,0.1,1.8,0.2
		c0.6,0.1,1.1,0.2,1.6,0.2c0.5,0.1,1.1,0.1,1.8,0.1c1.3,0,2.7-0.1,4.1-0.3c1.4-0.2,2.8-0.3,4.1-0.3c0.2,0,0.4,0.1,0.6,0.4
		c0.2,0.3,0.3,0.6,0.3,0.9c0,0.3-0.1,0.6-0.2,0.8c-0.1,0.3-0.4,0.4-0.7,0.5c-1.2,0.1-2.1,0.3-2.9,0.5c-0.8,0.2-1.5,0.6-2.1,1
		c-0.6,0.4-1.3,0.9-1.8,1.4c-0.6,0.6-1.3,1.2-2.1,2c-0.5,0.5-1.2,1.1-2.1,1.9s-1.8,1.7-2.9,2.6c-1,0.9-2,1.8-3,2.6
		c-1,0.8-1.8,1.5-2.5,2c-0.2,0.2-0.3,0.3-0.3,0.5c0.1,0.2,0.2,0.3,0.3,0.3c2.3,0.1,4.3,0.5,5.8,1.2s2.9,1.5,3.9,2.5
		c1.1,1,1.9,2.2,2.7,3.5c0.7,1.3,1.5,2.6,2.2,4c0.7,1.4,1.5,2.7,2.5,4c0.9,1.3,2.1,2.5,3.5,3.6c0.4,0.3,0.9,0.5,1.5,0.7
		c0.6,0.2,1.2,0.3,1.9,0.3c0.4,0,0.6,0.1,0.8,0.4c0.2,0.3,0.3,0.6,0.3,1c0,0.3-0.1,0.6-0.3,0.8C649.2,279.3,648.9,279.5,648.6,279.5
		z"/>
	<path class="st1" d="M665,256.7c-0.3,0-0.5,0.1-0.5,0.3c0,0.2,0,0.5,0,0.7c0,3,0.3,5.6,1,7.7c0.7,2.1,1.6,3.8,2.8,5.1
		c1.2,1.3,2.6,2.3,4.3,2.9c1.7,0.6,3.5,0.9,5.4,0.9c2,0,3.9-0.2,5.8-0.5c1.9-0.3,3.5-1,4.8-2.1c0.3-0.2,0.6-0.3,0.9-0.3
		c0.3,0.1,0.6,0.2,0.8,0.4c0.2,0.2,0.3,0.5,0.4,0.8c0.1,0.3,0,0.6-0.2,0.8c-1.9,2.5-4,4.2-6.3,5.1s-5.2,1.4-8.7,1.4
		c-3.5,0-6.5-0.5-9.1-1.6c-2.5-1.1-4.7-2.5-6.3-4.4c-1.7-1.9-2.9-4.1-3.7-6.7c-0.8-2.5-1.2-5.3-1.2-8.3c0-2.9,0.5-5.6,1.4-8.2
		c1-2.6,2.3-4.8,4.1-6.7c1.8-1.9,3.8-3.4,6.2-4.5c2.4-1.1,5.1-1.7,8-1.7c2.5,0,4.7,0.4,6.7,1.3c2,0.8,3.7,2,5.1,3.5
		c1.4,1.5,2.5,3.3,3.3,5.4c0.8,2.1,1.2,4.3,1.2,6.7c0,1.2-0.4,1.8-1.3,1.8H665z M681.1,253.6c0.8,0,1.3-0.3,1.4-0.9
		c0.1-0.6,0.2-1.3,0.2-2.1c0-1.2-0.2-2.4-0.6-3.6c-0.4-1.1-0.9-2.2-1.6-3c-0.7-0.9-1.6-1.6-2.5-2.1c-1-0.5-2.1-0.8-3.4-0.8
		c-1.6,0-2.9,0.3-4.1,0.8c-1.1,0.6-2.1,1.3-2.9,2.2c-0.8,0.9-1.4,2-1.8,3.2c-0.4,1.2-0.7,2.5-0.9,3.9c-0.1,0.7-0.2,1.3-0.1,1.7
		c0,0.4,0.2,0.7,0.4,0.7H681.1z"/>
	<path class="st1" d="M712.2,265.5c0,3.3,0.4,5.7,1.1,7.3s2.1,2.4,4,2.4c1.3,0,2.6-0.2,3.8-0.6c1.2-0.4,2.1-0.8,2.8-1.3
		c0.2-0.1,0.4-0.1,0.6,0c0.2,0.1,0.4,0.2,0.6,0.4c0.2,0.2,0.3,0.4,0.4,0.7c0.1,0.2,0.1,0.4,0,0.6c-1.1,1.8-2.6,3.1-4.3,3.9
		c-1.8,0.8-3.9,1.1-6.3,1.1c-4,0-6.8-0.9-8.4-2.7c-1.6-1.8-2.5-4.6-2.5-8.4v-22.6c0-0.7,0-1.3-0.1-1.7c-0.1-0.4-0.2-0.7-0.5-0.9
		c-0.3-0.2-0.8-0.3-1.4-0.3c-0.7,0-1.6,0-2.9,0c-0.2,0-0.3-0.2-0.4-0.5c-0.1-0.3-0.2-0.7-0.2-1.1c0-0.4,0-0.8,0.1-1.1
		c0.1-0.3,0.3-0.5,0.5-0.5c1.5-0.1,2.7-0.3,3.8-0.7c1.1-0.3,1.9-0.8,2.7-1.5c0.7-0.7,1.3-1.6,1.8-2.9c0.4-1.2,0.8-2.8,1.1-4.7
		c0.1-0.3,0.3-0.6,0.7-0.8c0.4-0.2,0.8-0.3,1.3-0.3s0.9,0.1,1.3,0.2c0.4,0.1,0.6,0.3,0.6,0.6v7.6c0,0.9,0,1.5,0.1,1.6
		c0.1,0.1,0.5,0.2,1.1,0.2h9.1c0.4,0,0.7,0.2,0.8,0.7c0.1,0.5,0.2,0.9,0.2,1.2c0,0.4-0.1,0.8-0.2,1.3c-0.1,0.5-0.5,0.7-0.9,0.7h-9.4
		c-0.4,0-0.6,0.1-0.7,0.3c-0.1,0.2-0.1,1-0.1,2.2V265.5z"/>
	<path class="st1" d="M748.2,268.4c0,1.5,0,2.7,0.1,3.7c0.1,1,0.3,1.8,0.6,2.5c0.3,0.6,0.9,1.1,1.6,1.5c0.7,0.4,1.8,0.6,3.1,0.8
		c0.4,0.1,0.6,0.2,0.8,0.5c0.2,0.3,0.3,0.6,0.3,0.9c0,0.3-0.1,0.6-0.3,0.8c-0.2,0.3-0.4,0.4-0.8,0.4c-1,0-2.4-0.1-4.1-0.3
		c-1.7-0.2-3.4-0.3-5.2-0.3c-1.9,0-3.7,0.1-5.5,0.3c-1.8,0.2-3.5,0.3-5.1,0.3c-0.3,0-0.5-0.1-0.7-0.4c-0.2-0.3-0.3-0.5-0.3-0.8
		c0-0.3,0.1-0.7,0.3-0.9c0.2-0.3,0.4-0.4,0.8-0.5c1.5-0.2,2.7-0.4,3.6-0.8c0.8-0.3,1.5-0.8,1.8-1.4c0.4-0.6,0.6-1.4,0.7-2.3
		c0.1-0.9,0.1-2,0.1-3.4v-14.1c0-2.5-0.1-4.5-0.2-6.1c-0.1-1.5-0.4-2.7-0.8-3.5c-0.4-0.8-1-1.3-1.8-1.6c-0.8-0.3-1.9-0.5-3.3-0.7
		c-0.4,0-0.6-0.1-0.8-0.4c-0.2-0.3-0.3-0.6-0.3-0.9c0-0.3,0.1-0.6,0.3-0.9c0.2-0.3,0.4-0.4,0.8-0.4c0.6-0.1,1.3-0.1,2.2-0.2
		c0.8-0.1,1.7-0.1,2.7-0.2c0.9-0.1,1.9-0.2,2.9-0.3c1-0.1,1.8-0.3,2.6-0.5c0.6-0.1,1.2-0.2,1.5-0.4c0.4-0.1,0.7-0.2,0.9-0.2
		c0.7,0,1.2,0.2,1.4,0.6c0.2,0.4,0.3,0.8,0.3,1.1V268.4z M743.6,229.5c-1.5,0-2.7-0.5-3.8-1.4c-1.1-0.9-1.6-2-1.6-3.4
		c0-1.3,0.5-2.5,1.5-3.4c1-0.9,2.2-1.4,3.7-1.4c1.4,0,2.6,0.5,3.5,1.4c0.9,1,1.4,2.1,1.4,3.5c0,1.3-0.4,2.4-1.3,3.3
		C746,229.1,744.9,229.5,743.6,229.5z"/>
	<path class="st1" d="M778.6,268.4c0,1.5,0,2.7,0.1,3.7c0.1,1,0.2,1.8,0.5,2.5c0.3,0.6,0.7,1.1,1.3,1.5c0.6,0.4,1.5,0.6,2.6,0.8
		c0.4,0.1,0.6,0.2,0.8,0.5c0.2,0.3,0.3,0.6,0.3,0.9c0,0.3-0.1,0.6-0.3,0.8c-0.2,0.3-0.4,0.4-0.8,0.4c-0.6,0-1.7-0.1-3.3-0.3
		c-1.6-0.2-3.3-0.3-5-0.3c-1.9,0-3.7,0.1-5.4,0.3c-1.8,0.2-3.4,0.3-4.9,0.3c-0.3,0-0.5-0.1-0.7-0.4c-0.2-0.3-0.3-0.5-0.3-0.8
		c0-0.3,0.1-0.7,0.3-0.9c0.2-0.3,0.4-0.4,0.8-0.5c1.5-0.2,2.6-0.4,3.4-0.7c0.8-0.3,1.4-0.7,1.8-1.3c0.4-0.6,0.6-1.3,0.7-2.3
		c0.1-0.9,0.1-2.1,0.1-3.6v-11.1c0-2.9,0-5.2-0.1-7.2c-0.1-1.9-0.3-3.4-0.6-4.5c-0.3-1.1-0.9-1.9-1.7-2.3c-0.8-0.4-1.8-0.7-3.2-0.7
		c-0.3,0-0.6-0.1-0.8-0.3c-0.2-0.2-0.3-0.5-0.3-0.8c0-0.3,0.1-0.6,0.3-0.9c0.2-0.2,0.5-0.3,0.8-0.3c1.1,0,2.7-0.2,4.9-0.5
		c2.1-0.3,4.3-0.8,6.5-1.5c0.8-0.2,1.4-0.1,1.8,0.5c0.4,0.6,0.6,1.2,0.6,1.9v3.5c0,0.1,0,0.2,0.1,0.2c0.1,0,0.2,0,0.2-0.1
		c0.4-0.6,1-1.4,1.7-2.2s1.6-1.5,2.6-2.2c1-0.7,2.2-1.3,3.5-1.8c1.3-0.5,2.7-0.7,4.3-0.7c4.4,0,7.8,1.2,10.3,3.6
		c2.5,2.4,3.7,6.4,3.7,11.8v15c0,1.6,0,2.9,0.1,3.9c0.1,1,0.3,1.8,0.6,2.4c0.3,0.6,0.8,1.1,1.5,1.4s1.6,0.6,2.9,0.7
		c0.3,0.1,0.6,0.2,0.8,0.5c0.2,0.3,0.3,0.6,0.3,0.9c0,0.3-0.1,0.6-0.3,0.8c-0.2,0.3-0.4,0.4-0.8,0.4c-0.8,0-2-0.1-3.7-0.3
		c-1.7-0.2-3.5-0.3-5.2-0.3c-1.9,0-3.7,0.1-5.4,0.3c-1.7,0.2-3.1,0.3-4.2,0.3c-0.3,0-0.5-0.1-0.7-0.4c-0.2-0.3-0.3-0.5-0.3-0.8
		c0-0.3,0.1-0.7,0.3-0.9c0.2-0.3,0.4-0.4,0.8-0.5c1.3-0.2,2.3-0.4,2.9-0.8c0.7-0.3,1.2-0.8,1.5-1.4c0.3-0.6,0.5-1.4,0.6-2.3
		c0.1-0.9,0.1-2,0.1-3.4v-13.3c0-1.5-0.1-2.9-0.2-4.4c-0.1-1.5-0.4-2.8-1-4c-0.5-1.2-1.3-2.1-2.3-2.9c-1-0.8-2.4-1.1-4.1-1.1
		c-1.8,0-3.3,0.3-4.6,0.8c-1.3,0.6-2.4,1.3-3.3,2.2c-0.9,0.9-1.6,2-2.1,3.3c-0.5,1.3-0.7,2.6-0.7,4V268.4z"/>
	<path class="st1" d="M855.6,245c0.8,1.2,1.4,2.5,1.8,3.9c0.4,1.4,0.6,2.8,0.7,4.2c0,2.6-0.5,4.8-1.5,6.8c-1,2-2.3,3.6-3.9,5
		c-1.7,1.3-3.6,2.4-5.8,3.1c-2.2,0.7-4.5,1.1-6.9,1.1c-0.7,0-1.6,0-2.7,0.1c-1.1,0.1-2.2,0.2-3.3,0.4c-1,0.2-1.9,0.5-2.7,0.8
		s-1.1,0.9-1.1,1.6c0,0.5,0.3,1,0.9,1.3c0.6,0.3,1.3,0.6,2.2,0.8c0.8,0.2,1.7,0.3,2.5,0.4c0.8,0.1,1.5,0.1,2.1,0.1
		c4.2,0.3,8,0.7,11.3,1.1c3.3,0.4,6.2,1.2,8.5,2.2c2.3,1,4.1,2.4,5.3,4.2c1.2,1.8,1.8,4.1,1.8,7c0,2.5-0.5,4.9-1.5,7
		c-1,2.2-2.5,4-4.5,5.6c-2,1.6-4.4,2.8-7.3,3.7c-2.9,0.9-6.2,1.4-10,1.4c-3.2,0-6.1-0.3-8.7-0.8c-2.6-0.6-4.9-1.4-6.8-2.6
		c-1.9-1.2-3.4-2.7-4.4-4.5c-1-1.8-1.5-4-1.5-6.5c0-1.5,0.2-2.8,0.6-4c0.4-1.2,1-2.3,1.7-3.2c0.7-0.9,1.5-1.8,2.4-2.5
		c0.9-0.7,1.8-1.3,2.7-1.8c-1.3-0.5-2.6-1.1-3.7-2c-1.1-0.8-1.7-2.2-1.7-4.1c0-1.3,0.3-2.5,0.9-3.4c0.6-0.9,1.4-1.7,2.5-2.3
		c1-0.6,2.2-1,3.4-1.3c1.3-0.3,2.5-0.4,3.7-0.5c0.1,0,0.1,0,0.1-0.1s0-0.1-0.1-0.1c-3-1.2-5.3-2.8-7-4.9c-1.7-2.1-2.5-4.9-2.5-8.4
		c0-2.4,0.4-4.6,1.3-6.5c0.9-2,2.1-3.6,3.7-5c1.6-1.4,3.6-2.4,5.8-3.2c2.3-0.8,4.8-1.1,7.5-1.1c3.1,0,5.6,0.4,7.4,1.3
		c1.8,0.9,3.5,2,5,3.4c1.1-1.1,2.4-2,3.9-2.8c1.5-0.8,3.2-1.1,5.1-1.1c0.6,0,1.4,0.1,2.2,0.2c0.8,0.1,1.5,0.3,2.2,0.7
		c0.7,0.3,1.2,0.7,1.7,1.3c0.4,0.5,0.7,1.2,0.7,2.1c0,1-0.3,1.9-0.8,2.7c-0.5,0.8-1.5,1.2-3.1,1.2c-1.1,0-1.8-0.2-2.2-0.7
		c-0.3-0.5-0.6-1-0.8-1.5c-0.2-0.5-0.4-1-0.6-1.5c-0.2-0.5-0.8-0.7-1.7-0.7c-0.9,0-1.9,0.2-2.8,0.7C856.7,243.6,856,244.2,855.6,245
		z M831.8,281.8c-1,0.8-1.8,2-2.4,3.5c-0.6,1.5-0.9,3-0.9,4.6c0,2.2,0.5,4.1,1.4,5.7c0.9,1.6,2.1,3,3.6,4s3.1,1.9,5,2.4
		c1.9,0.5,3.8,0.8,5.8,0.8c1.8,0,3.4-0.3,5-0.9c1.5-0.6,2.9-1.4,4.1-2.4c1.2-1,2.1-2.2,2.8-3.5c0.7-1.3,1.1-2.8,1.1-4.4
		c0-2-0.7-3.6-2-4.8c-1.3-1.2-3.1-2.2-5.4-2.9c-2.3-0.7-5-1.2-8.1-1.5C838.7,282.1,835.3,281.9,831.8,281.8z M840.2,265.7
		c3,0,5.2-1,6.5-3c1.3-2,2-4.9,2-8.7c0-1.9-0.1-3.7-0.3-5.3s-0.6-2.9-1.2-4.1c-0.6-1.1-1.4-2-2.3-2.6c-1-0.6-2.2-0.9-3.7-0.9
		c-1.9,0-3.4,0.4-4.5,1.2c-1.1,0.8-2,1.8-2.7,3c-0.6,1.2-1.1,2.6-1.3,4.1c-0.2,1.5-0.3,3-0.3,4.5c0,3.9,0.7,6.8,2,8.8
		C835.7,264.7,837.6,265.7,840.2,265.7z"/>
	<path class="st1" d="M919.6,268.4c0,1.5,0,2.7,0.1,3.7c0.1,1,0.3,1.8,0.6,2.5c0.3,0.6,0.9,1.1,1.6,1.5c0.7,0.4,1.8,0.6,3.1,0.8
		c0.4,0.1,0.6,0.2,0.8,0.5c0.2,0.3,0.3,0.6,0.3,0.9c0,0.3-0.1,0.6-0.3,0.8c-0.2,0.3-0.4,0.4-0.8,0.4c-1,0-2.4-0.1-4.1-0.3
		c-1.7-0.2-3.4-0.3-5.2-0.3c-1.9,0-3.7,0.1-5.5,0.3c-1.8,0.2-3.5,0.3-5.1,0.3c-0.3,0-0.5-0.1-0.7-0.4c-0.2-0.3-0.3-0.5-0.3-0.8
		c0-0.3,0.1-0.7,0.3-0.9c0.2-0.3,0.4-0.4,0.8-0.5c1.5-0.2,2.7-0.4,3.6-0.8c0.8-0.3,1.5-0.8,1.8-1.4c0.4-0.6,0.6-1.4,0.7-2.3
		c0.1-0.9,0.1-2,0.1-3.4v-14.1c0-2.5-0.1-4.5-0.2-6.1s-0.4-2.7-0.8-3.5s-1-1.3-1.8-1.6c-0.8-0.3-1.9-0.5-3.3-0.7
		c-0.4,0-0.6-0.1-0.8-0.4c-0.2-0.3-0.3-0.6-0.3-0.9c0-0.3,0.1-0.6,0.3-0.9c0.2-0.3,0.4-0.4,0.8-0.4c0.6-0.1,1.3-0.1,2.1-0.2
		c0.8-0.1,1.7-0.1,2.7-0.2c0.9-0.1,1.9-0.2,2.9-0.3c1-0.1,1.8-0.3,2.6-0.5c0.6-0.1,1.2-0.2,1.5-0.4c0.4-0.1,0.7-0.2,0.9-0.2
		c0.7,0,1.2,0.2,1.4,0.6c0.2,0.4,0.3,0.8,0.3,1.1V268.4z M915,229.5c-1.5,0-2.7-0.5-3.8-1.4c-1-0.9-1.6-2-1.6-3.4
		c0-1.3,0.5-2.5,1.5-3.4c1-0.9,2.2-1.4,3.7-1.4c1.4,0,2.6,0.5,3.5,1.4c0.9,1,1.4,2.1,1.4,3.5c0,1.3-0.4,2.4-1.3,3.3
		C917.4,229.1,916.3,229.5,915,229.5z"/>
	<path class="st1" d="M950,270.1c0,0.7,0,1.4,0.1,2c0.1,1,0.2,1.8,0.5,2.5c0.3,0.6,0.7,1.1,1.3,1.5c0.6,0.4,1.5,0.6,2.6,0.8
		c0.4,0.1,0.6,0.2,0.8,0.5c0.2,0.3,0.3,0.6,0.3,0.9c0,0.3-0.1,0.6-0.3,0.8c-0.2,0.3-0.4,0.4-0.8,0.4c-0.6,0-1.7-0.1-3.3-0.3
		c-1.6-0.2-3.3-0.3-5-0.3c-1.9,0-3.7,0.1-5.4,0.3c-1.8,0.2-3.4,0.3-4.9,0.3c-0.3,0-0.5-0.1-0.7-0.4c-0.2-0.3-0.3-0.5-0.3-0.8
		c0-0.3,0.1-0.7,0.3-0.9c0.2-0.3,0.4-0.4,0.8-0.5c1.5-0.2,2.6-0.4,3.4-0.7c0.8-0.3,1.4-0.7,1.8-1.3c0.4-0.6,0.6-1.3,0.7-2.3
		c0.1-0.9,0.1-2.1,0.1-3.6v-11.1c0-2.9,0-5.2-0.1-7.2c-0.1-1.9-0.3-3.4-0.6-4.5c-0.3-1.1-0.9-1.9-1.7-2.3c-0.8-0.4-1.8-0.7-3.2-0.7
		c-0.3,0-0.6-0.1-0.8-0.3c-0.2-0.2-0.3-0.5-0.3-0.8c0-0.3,0.1-0.6,0.3-0.9c0.2-0.2,0.5-0.3,0.8-0.3c1.1,0,2.7-0.2,4.9-0.5
		c2.1-0.3,4.3-0.8,6.5-1.5c0.8-0.2,1.4-0.1,1.8,0.5c0.4,0.6,0.6,1.2,0.6,1.9v3.5c0,0.1,0,0.2,0.1,0.2c0.1,0,0.2,0,0.2-0.1
		c0.4-0.6,1-1.4,1.7-2.2s1.6-1.5,2.6-2.2c1-0.7,2.2-1.3,3.5-1.8c1.3-0.5,2.7-0.7,4.3-0.7c4.4,0,7.8,1.2,10.3,3.6
		c2.5,2.4,3.7,6.4,3.7,11.8v15c0,1.6,0,2.9,0.1,3.9c0.1,1,0.3,1.8,0.6,2.4c0.3,0.6,0.8,1.1,1.5,1.4c0.7,0.3,1.6,0.6,2.9,0.7
		c0.3,0.1,0.6,0.2,0.8,0.5c0.2,0.3,0.3,0.6,0.3,0.9c0,0.3-0.1,0.6-0.3,0.8c-0.2,0.3-0.4,0.4-0.8,0.4c-0.8,0-2-0.1-3.7-0.3
		c-1.7-0.2-3.5-0.3-5.2-0.3c-1.9,0-3.7,0.1-5.4,0.3c-1.7,0.2-3.1,0.3-4.2,0.3c-0.3,0-0.5-0.1-0.7-0.4c-0.2-0.3-0.3-0.5-0.3-0.8
		c0-0.3,0.1-0.7,0.3-0.9c0.2-0.3,0.4-0.4,0.8-0.5c1.3-0.2,2.3-0.4,2.9-0.8c0.7-0.3,1.2-0.8,1.5-1.4c0.3-0.6,0.5-1.4,0.6-2.3
		c0.1-0.9,0.1-2,0.1-3.4v-13.3c0-1.5-0.1-2.9-0.2-4.4c-0.1-1.5-0.4-2.8-1-4c-0.5-1.2-1.3-2.1-2.3-2.9c-1-0.8-2.4-1.1-4.1-1.1
		c-1.8,0-3.3,0.3-4.6,0.8c-1.3,0.6-2.4,1.3-3.3,2.2c-0.9,0.9-1.6,2-2.1,3.3c-0.5,1.3-0.7,2.6-0.7,4v5.1v4v4.3
		C950,267.1,950,269.6,950,270.1z"/>
	<path class="st1" d="M997.4,257.5c0,2.2,0.3,4.3,0.8,6.4c0.5,2,1.3,3.8,2.4,5.4c1.1,1.5,2.5,2.8,4.2,3.7c1.7,0.9,3.7,1.4,6.1,1.4
		c2,0,4.1-0.2,6-0.5c2-0.3,3.6-1.1,5-2.2c0.2-0.2,0.5-0.3,0.8-0.2c0.3,0.1,0.6,0.2,0.8,0.4c0.2,0.2,0.4,0.5,0.5,0.7
		c0.1,0.3,0,0.6-0.1,0.8c-1.9,2.6-4.2,4.3-6.8,5.2c-2.6,0.9-5.6,1.4-9.1,1.4c-2.3,0-4.7-0.3-7-1.1c-2.3-0.7-4.5-1.9-6.4-3.5
		c-1.9-1.6-3.4-3.8-4.6-6.5c-1.2-2.7-1.8-6.1-1.8-10.1c0-2.9,0.5-5.6,1.4-8.1s2.4-4.7,4.2-6.6c1.8-1.8,4.1-3.3,6.8-4.4
		c2.7-1.1,5.8-1.6,9.3-1.6c1.7,0,3.4,0.2,5,0.6c1.6,0.4,3,1,4.3,1.8s2.3,1.8,3,2.9c0.8,1.2,1.1,2.5,1.1,3.9c0,1.1-0.3,2.1-1,3
		c-0.7,0.9-1.8,1.4-3.3,1.4c-1.2,0-2.2-0.3-3-1c-0.8-0.6-1.2-1.6-1.2-2.8c0-0.8,0.2-1.5,0.7-2c0.4-0.5,0.7-1,0.7-1.5
		c0-1-0.7-1.9-2.1-2.4c-1.4-0.6-3-0.8-4.6-0.8c-2.2,0-4.1,0.5-5.6,1.4c-1.5,0.9-2.7,2.2-3.7,3.7c-1,1.6-1.7,3.3-2.1,5.3
		C997.6,253.5,997.4,255.5,997.4,257.5z"/>
	<path class="st1" d="M1038.5,280.2c-1.3,0-2.5-0.5-3.5-1.5c-1-1-1.5-2.2-1.5-3.5c0-1.3,0.5-2.5,1.5-3.5c1-1,2.2-1.5,3.5-1.5
		c1.5,0,2.7,0.5,3.6,1.5c0.9,1,1.4,2.2,1.4,3.5c0,1.3-0.5,2.5-1.4,3.5C1041.1,279.7,1039.9,280.2,1038.5,280.2z"/>
	<path class="st3" d="M469.8,73.9c4.7,0,9,0.6,12.9,1.7c3.9,1.1,7.8,2.6,11.7,4.5c1.1,0.5,2.2,1,3.2,1.5c1,0.5,1.8,0.7,2.6,0.7
		c1.7,0,2.7-1,3.3-3c0.1-0.4,0.4-0.7,1-0.9c0.6-0.2,1.1-0.3,1.7-0.2c0.6,0.1,1.1,0.2,1.5,0.4c0.4,0.2,0.6,0.5,0.5,0.9
		c-0.4,1.7-0.7,3.4-0.9,5.1c-0.2,1.8-0.2,3.6-0.2,5.4c0,2.9,0.2,5.8,0.6,8.7c0.4,2.9,0.8,5.9,1.2,9c0,0.4-0.2,0.8-0.7,1
		c-0.5,0.3-1,0.4-1.7,0.5c-0.7,0.1-1.3,0-1.9-0.2c-0.6-0.2-1-0.6-1.1-1.1c-2.6-9.3-6.8-16.2-12.6-20.6c-5.8-4.4-13.1-6.6-21.9-6.6
		c-6.8,0-12.5,1.5-16.9,4.4c-4.5,2.9-8,6.7-10.6,11.3c-2.6,4.6-4.5,9.7-5.5,15.2c-1,5.5-1.6,11-1.6,16.2c0,5.8,0.6,11.6,1.9,17.4
		c1.2,5.8,3.3,11,6.1,15.7c2.8,4.7,6.4,8.5,11,11.4c4.5,3,10,4.4,16.4,4.4c5,0,9.4-0.4,13.4-1.3c3.9-0.9,7.3-2.5,9.9-4.9
		c3.3-3,6-6.6,7.9-10.8c2-4.2,3.4-8.9,4.2-14.2c0.1-0.7,0.4-1.2,1-1.4c0.6-0.2,1.2-0.2,1.8-0.1c0.6,0.2,1.2,0.4,1.7,0.9
		c0.5,0.4,0.7,0.8,0.6,1.2c-0.3,2.1-0.5,4.1-0.6,6.1c-0.1,2-0.2,4.1-0.2,6.1c0,3.5,0.1,7.1,0.4,10.8c0.3,3.7,0.5,7.5,0.7,11.6
		c0,0.6-0.2,1.1-0.6,1.4c-0.4,0.3-0.9,0.5-1.5,0.5c-0.6,0.1-1.1-0.1-1.6-0.3c-0.5-0.3-0.8-0.6-0.9-1.2c-0.2-0.9-0.6-1.8-1.1-2.7
		c-0.5-0.9-1.2-1.6-2-2.2c-0.8-0.6-1.8-0.9-3-0.9c-1,0-2.2,0.4-3.6,1.1c-2.3,1.2-4.5,2.3-6.6,3.2c-2.1,0.9-4.3,1.6-6.4,2.1
		c-2.2,0.5-4.5,0.9-6.8,1.1c-2.4,0.2-5,0.3-7.8,0.3c-18.3,0-31.9-4.6-40.8-13.8c-8.9-9.2-13.3-22.3-13.3-39.4
		c0-9.1,1.4-17.2,4.2-24.2s6.7-12.9,11.6-17.6c4.9-4.8,10.8-8.4,17.6-10.8C454.4,75.1,461.8,73.9,469.8,73.9z"/>
	<path class="st3" d="M588.7,154.4c0,5.3,0.1,9.4,0.1,10.3c0.2,2.6,0.6,4.7,1.4,6.2c0.8,1.5,1.9,2.5,3.5,3.1
		c1.6,0.6,3.7,0.9,6.5,0.9c0.4,0,0.8,0.2,1,0.7c0.3,0.5,0.4,1,0.4,1.6c0,0.5-0.1,1-0.3,1.6c-0.2,0.5-0.6,0.8-1.1,0.8
		c-0.8,0-1.5,0-2.1,0.1c-0.6,0.1-1.1,0.1-1.7,0.2c-0.6,0.1-1.2,0.1-1.9,0.2c-0.7,0.1-1.5,0.2-2.6,0.3c-0.8,0.1-2,0.3-3.5,0.6
		c-1.5,0.3-3,0.6-4.6,0.9c-1.6,0.3-3,0.6-4.4,0.8c-1.3,0.2-2.2,0.3-2.6,0.3c-1.9,0-2.8-2.9-2.8-8.7c0-0.2-0.1-0.3-0.3-0.4
		c-0.2-0.1-0.4,0-0.6,0.2c-3.8,3.3-7.7,5.6-11.6,6.9c-3.9,1.3-7.6,1.9-11.3,1.9c-4.8,0-8.7-0.6-11.8-1.8c-3.1-1.2-5.5-2.9-7.3-5.2
		c-1.8-2.3-3-5.1-3.7-8.5c-0.7-3.4-1.1-7.2-1.1-11.4v-17.6c0-4.5-0.1-7.9-0.3-10.4c-0.2-2.5-0.7-4.4-1.4-5.6
		c-0.7-1.2-1.8-2.1-3.3-2.5c-1.5-0.4-3.4-0.8-5.9-1.1c-0.5,0-0.9-0.3-1.2-0.8c-0.3-0.5-0.4-1-0.5-1.6c-0.1-0.5,0.1-1,0.3-1.6
		c0.3-0.5,0.7-0.8,1.3-0.8c1-0.1,2.4-0.3,4.1-0.5c1.7-0.2,3.5-0.5,5.5-0.9c2-0.4,4-0.9,6.1-1.3c2.1-0.5,4.1-1,6-1.5
		c1.5-0.4,2.4-0.2,3,0.7c0.5,0.9,0.8,1.6,0.8,2.3v37c0,4.1,0.2,7.7,0.5,10.6c0.4,2.9,1,5.3,1.9,7.1c0.9,1.9,2.2,3.2,3.9,4
		c1.7,0.8,3.7,1.2,6.2,1.2c3.5,0,7.2-0.6,11-1.9c3.8-1.2,6.7-2.7,8.7-4.5c0.3-0.3,0.5-0.9,0.5-1.7c0.1-0.8,0.1-1.5,0.1-1.9v-24.6
		c0-4.5-0.1-7.9-0.2-10.4c-0.1-2.5-0.5-4.4-1.1-5.6c-0.6-1.2-1.6-2.1-2.9-2.5c-1.3-0.4-3.2-0.8-5.7-1.1c-0.5-0.1-0.9-0.4-1.2-0.9
		c-0.3-0.5-0.4-1-0.5-1.6c-0.1-0.6,0.1-1.1,0.3-1.6c0.3-0.5,0.7-0.7,1.3-0.7c3.7-0.2,7.1-0.7,10.3-1.4c3.1-0.7,6.6-1.7,10.4-2.8
		c1.5-0.4,2.4-0.2,3,0.7c0.5,0.9,0.8,1.6,0.8,2.3C588.6,113,588.6,143.9,588.7,154.4z"/>
	<path class="st3" d="M616.5,143.3c0,3.9,0.5,7.7,1.4,11.3c0.9,3.6,2.4,6.7,4.3,9.5c1.9,2.7,4.4,4.9,7.4,6.5c3,1.6,6.6,2.4,10.9,2.4
		c3.6,0,7.2-0.3,10.6-0.9c3.5-0.6,6.4-1.9,8.8-4c0.4-0.4,0.9-0.5,1.4-0.4c0.5,0.2,1,0.4,1.4,0.8c0.4,0.4,0.7,0.8,0.9,1.3
		c0.2,0.5,0.1,1-0.2,1.4c-3.4,4.6-7.4,7.6-12,9.2c-4.6,1.6-9.9,2.4-16.2,2.4c-4.1,0-8.3-0.6-12.4-1.9c-4.1-1.2-7.9-3.3-11.3-6.2
		s-6.1-6.8-8.2-11.6c-2.1-4.8-3.1-10.8-3.1-18c0-5.1,0.9-9.9,2.6-14.4c1.7-4.5,4.2-8.4,7.5-11.7c3.3-3.3,7.3-5.9,12-7.8
		c4.8-1.9,10.3-2.9,16.5-2.9c3,0,5.9,0.4,8.8,1.1c2.8,0.7,5.4,1.8,7.6,3.2c2.2,1.4,4,3.1,5.4,5.2c1.3,2.1,2,4.4,2,7
		c0,1.9-0.6,3.6-1.9,5.3c-1.2,1.7-3.2,2.5-5.9,2.5c-2.2,0-4-0.6-5.4-1.7c-1.4-1.1-2.1-2.8-2.1-5c0-1.5,0.4-2.6,1.2-3.6
		s1.2-1.8,1.2-2.6c0-1.9-1.2-3.3-3.7-4.3c-2.5-1-5.2-1.5-8.2-1.5c-3.9,0-7.2,0.8-9.9,2.5c-2.6,1.7-4.8,3.9-6.5,6.6
		c-1.7,2.7-2.9,5.9-3.7,9.3C616.9,136.2,616.5,139.7,616.5,143.3z"/>
	<path class="st3" d="M741.6,154.4c0,5.3,0.1,9.4,0.1,10.3c0.2,2.6,0.6,4.7,1.4,6.2c0.8,1.5,1.9,2.5,3.5,3.1
		c1.6,0.6,3.7,0.9,6.5,0.9c0.4,0,0.8,0.2,1,0.7c0.3,0.5,0.4,1,0.4,1.6c0,0.5-0.1,1-0.3,1.6c-0.2,0.5-0.6,0.8-1.1,0.8
		c-0.8,0-1.5,0-2.1,0.1c-0.6,0.1-1.1,0.1-1.7,0.2c-0.6,0.1-1.2,0.1-1.9,0.2c-0.7,0.1-1.5,0.2-2.6,0.3c-0.8,0.1-2,0.3-3.5,0.6
		c-1.5,0.3-3,0.6-4.6,0.9c-1.6,0.3-3,0.6-4.4,0.8c-1.3,0.2-2.2,0.3-2.6,0.3c-1.9,0-2.8-2.9-2.8-8.7c0-0.2-0.1-0.3-0.3-0.4
		c-0.2-0.1-0.4,0-0.6,0.2c-3.8,3.3-7.7,5.6-11.6,6.9c-3.9,1.3-7.6,1.9-11.3,1.9c-4.8,0-8.7-0.6-11.8-1.8c-3.1-1.2-5.5-2.9-7.3-5.2
		c-1.8-2.3-3-5.1-3.7-8.5c-0.7-3.4-1.1-7.2-1.1-11.4v-17.6c0-4.5-0.1-7.9-0.3-10.4c-0.2-2.5-0.7-4.4-1.4-5.6
		c-0.7-1.2-1.8-2.1-3.3-2.5c-1.5-0.4-3.4-0.8-5.9-1.1c-0.5,0-0.9-0.3-1.2-0.8c-0.3-0.5-0.4-1-0.5-1.6c-0.1-0.5,0.1-1,0.3-1.6
		c0.3-0.5,0.7-0.8,1.3-0.8c1-0.1,2.4-0.3,4.1-0.5c1.7-0.2,3.5-0.5,5.5-0.9c2-0.4,4-0.9,6.1-1.3c2.1-0.5,4.1-1,6-1.5
		c1.5-0.4,2.4-0.2,3,0.7c0.5,0.9,0.8,1.6,0.8,2.3v37c0,4.1,0.2,7.7,0.5,10.6c0.4,2.9,1,5.3,1.9,7.1c0.9,1.9,2.2,3.2,3.9,4
		c1.7,0.8,3.7,1.2,6.2,1.2c3.5,0,7.2-0.6,11-1.9c3.8-1.2,6.7-2.7,8.7-4.5c0.3-0.3,0.5-0.9,0.5-1.7c0.1-0.8,0.1-1.5,0.1-1.9v-24.6
		c0-4.5-0.1-7.9-0.2-10.4c-0.1-2.5-0.5-4.4-1.1-5.6c-0.6-1.2-1.6-2.1-2.9-2.5c-1.3-0.4-3.2-0.8-5.7-1.1c-0.5-0.1-0.9-0.4-1.2-0.9
		c-0.3-0.5-0.4-1-0.5-1.6c-0.1-0.6,0.1-1.1,0.3-1.6c0.3-0.5,0.7-0.7,1.3-0.7c3.7-0.2,7.1-0.7,10.3-1.4c3.1-0.7,6.6-1.7,10.4-2.8
		c1.5-0.4,2.4-0.2,3,0.7c0.5,0.9,0.8,1.6,0.8,2.3C741.5,113,741.6,143.9,741.6,154.4z"/>
	<path class="st3" d="M782.5,154.4c0,6.3,0.1,13.7,0.1,14.8c0.1,1.8,0.5,3.2,1.1,4.4c0.6,1.1,1.6,2,3,2.6c1.4,0.6,3.3,1.1,5.8,1.4
		c0.6,0.1,1.1,0.4,1.4,0.9c0.3,0.5,0.5,1,0.5,1.6c0,0.5-0.2,1-0.5,1.5c-0.3,0.5-0.8,0.7-1.4,0.7c-2.1,0-4.6-0.2-7.7-0.5
		c-3.1-0.4-6.1-0.5-9.2-0.5c-3.3,0-6.5,0.2-9.6,0.5c-3.1,0.4-6,0.5-8.5,0.5c-0.5,0-0.9-0.2-1.2-0.7c-0.3-0.5-0.5-1-0.5-1.5
		c0-0.6,0.2-1.2,0.5-1.6c0.3-0.5,0.8-0.8,1.4-0.9c2.6-0.3,4.6-0.8,6-1.4c1.4-0.6,2.4-1.5,3-2.6c0.6-1.1,1-2.4,1.1-4
		c0.1-1.6,0.2-3.6,0.2-6v-23c0-4.9-0.1-8.8-0.2-11.7c-0.1-2.9-0.5-5.1-1.1-6.7c-0.6-1.6-1.6-2.6-2.9-3.2c-1.3-0.6-3.2-0.9-5.7-1
		c-0.5,0-0.9-0.2-1.2-0.6c-0.3-0.4-0.5-0.9-0.6-1.4c-0.1-0.5,0-1,0.2-1.5c0.3-0.5,0.7-0.7,1.3-0.7c1.8-0.2,4.3-0.6,7.7-1.2
		c3.4-0.6,7-1.5,11-2.5c0.2-0.1,0.6-0.2,1.2-0.2c0.6-0.1,1-0.1,1.2-0.1c1,0,1.9,0.4,2.6,1.2c0.7,0.8,1,1.8,0.9,3l-0.3,7.6
		c0,0.5,0.2,0.6,0.6,0.2c0.5-0.7,1.4-1.8,2.6-3.3c1.2-1.5,2.7-2.9,4.7-4.4c1.9-1.5,4.2-2.7,7-3.8c2.7-1.1,5.9-1.6,9.4-1.6
		c6.4,0,11.5,1.3,15.2,3.8c3.7,2.5,6.6,6.3,8.7,11.3c0.5-1.1,1.5-2.6,3-4.3c1.4-1.7,3.3-3.4,5.6-5c2.3-1.6,4.9-3,7.8-4.1
		c2.9-1.1,6.1-1.7,9.5-1.7c5,0,9,0.8,12.1,2.3c3.1,1.5,5.5,3.5,7.3,6.1c1.8,2.6,3,5.7,3.6,9.2c0.6,3.6,0.9,7.4,0.9,11.6v24.7
		c0,2.6,0.1,4.8,0.2,6.5c0.1,1.8,0.4,3.2,0.9,4.4c0.5,1.1,1.3,2,2.5,2.6c1.1,0.6,2.8,1.1,5,1.4c0.6,0.1,1.1,0.4,1.4,0.9
		s0.5,1,0.5,1.6c0,0.5-0.2,1-0.5,1.5s-0.8,0.7-1.4,0.7c-1.3,0-3.5-0.2-6.4-0.5c-2.9-0.4-5.9-0.5-9-0.5c-3.3,0-6.5,0.2-9.6,0.5
		c-3.1,0.4-5.8,0.5-8.2,0.5c-0.5,0-0.9-0.2-1.2-0.7c-0.3-0.5-0.5-1-0.5-1.5c0-0.6,0.2-1.2,0.5-1.6c0.3-0.5,0.8-0.8,1.4-0.9
		c2.5-0.3,4.4-0.8,5.7-1.4c1.3-0.6,2.3-1.5,2.9-2.6c0.6-1.1,1-2.4,1.1-4c0.1-1.6,0.2-3.6,0.2-6v-20c0-2.8-0.1-5.7-0.3-8.7
		c-0.2-3-0.8-5.8-1.6-8.2c-0.9-2.5-2.2-4.5-4-6.1c-1.8-1.6-4.3-2.4-7.5-2.4c-2.9,0-5.6,0.7-8.2,2c-2.5,1.3-4.7,3.1-6.6,5.1
		c-1.9,2.1-3.3,4.3-4.4,6.8c-1.1,2.4-1.6,4.8-1.6,7.1v23.6c0,3,0.1,5.4,0.2,7.2c0.1,1.8,0.4,3.2,0.9,4.3c0.5,1,1.3,1.8,2.5,2.3
		c1.1,0.5,2.8,0.9,5,1.2c0.6,0.1,1.1,0.4,1.4,0.9c0.3,0.5,0.5,1,0.5,1.6c0,0.5-0.2,1-0.5,1.5c-0.3,0.5-0.8,0.7-1.4,0.7
		c-1.3,0-3.5-0.2-6.4-0.5c-2.9-0.4-5.9-0.5-9-0.5c-3.3,0-6.5,0.2-9.6,0.5c-3.1,0.4-5.6,0.5-7.7,0.5c-0.5,0-0.9-0.2-1.2-0.7
		c-0.3-0.5-0.5-1-0.5-1.5c0-0.6,0.2-1.2,0.5-1.6c0.3-0.5,0.8-0.8,1.4-0.9c2.3-0.3,4.1-0.7,5.4-1.2s2.2-1.2,2.8-2.2
		c0.6-1,0.9-2.3,1-4c0.1-1.7,0.2-3.9,0.2-6.7v-20c0-2.8-0.1-5.7-0.4-8.7c-0.3-3-0.9-5.8-1.8-8.2s-2.3-4.5-4.2-6.1s-4.5-2.4-7.8-2.4
		c-3.5,0-6.6,0.6-9.1,1.9c-2.5,1.3-4.6,3-6.2,5.1c-1.6,2.1-2.8,4.4-3.6,6.9c-0.8,2.5-1.2,5.1-1.2,7.5
		C782.5,139.4,782.5,150.3,782.5,154.4z"/>
	<path class="st3" d="M895,102.6c0-4.5-0.1-8-0.2-10.7c-0.1-2.7-0.5-4.7-1.2-6.1c-0.7-1.4-1.7-2.4-3.2-2.9c-1.5-0.5-3.5-0.9-6.2-1.2
		c-0.5,0-0.9-0.3-1.2-0.8c-0.3-0.5-0.4-1-0.5-1.6c-0.1-0.5,0-1,0.3-1.6c0.3-0.5,0.7-0.8,1.3-0.8c3-0.2,6.4-0.5,10.2-0.9
		s7.6-1.2,11.4-2.3c1.4-0.4,2.4-0.3,2.9,0.2c0.5,0.6,0.8,1.2,0.9,1.8v44.6c0,0.2,0.1,0.3,0.2,0.3c0.2,0,0.4-0.1,0.5-0.3
		c2-3,4.8-5.7,8.5-8.1c3.7-2.4,8.2-3.6,13.6-3.6c4.5,0,8.4,1,11.8,2.9c3.4,1.9,6.3,4.5,8.6,7.6c2.3,3.2,4.1,6.8,5.3,11
		c1.2,4.1,1.8,8.4,1.8,12.9c0,6.8-1.1,12.8-3.2,17.8c-2.1,5-5,9.2-8.6,12.4c-3.6,3.3-7.8,5.7-12.6,7.3c-4.8,1.6-9.8,2.4-15.1,2.4
		c-3.6,0-7.5-0.2-11.7-0.7c-4.1-0.5-8.7-1.6-13.7-3.3V102.6z M909.6,165.9c0,0.6,0.4,1.6,1.1,2.8s1.7,2.4,3,3.6
		c1.3,1.1,2.8,2.2,4.7,3c1.8,0.9,3.8,1.3,6,1.3c3.7,0,6.8-0.9,9.3-2.6c2.5-1.7,4.5-4,5.9-7c1.5-3,2.5-6.3,3-10.2
		c0.6-3.8,0.9-7.9,0.9-12.1c0-3.6-0.2-7-0.6-10.2s-1.2-5.9-2.3-8.3c-1.1-2.4-2.6-4.3-4.6-5.7c-2-1.4-4.6-2.1-7.8-2.1
		c-2.7,0-5.2,0.5-7.5,1.6c-2.3,1-4.3,2.3-5.9,3.7c-1.7,1.5-3,3.1-3.9,4.8c-0.9,1.8-1.4,3.3-1.4,4.7V165.9z"/>
	<path class="st3" d="M985.2,141.8c-0.5,0-0.8,0.2-0.9,0.5c-0.1,0.4-0.1,0.8-0.1,1.3c0,5.4,0.6,9.9,1.8,13.7c1.2,3.7,2.8,6.8,5,9.1
		c2.1,2.3,4.7,4,7.6,5.1c3,1,6.1,1.6,9.6,1.6c3.5,0,6.9-0.3,10.3-0.9c3.3-0.6,6.2-1.8,8.5-3.8c0.5-0.4,1.1-0.6,1.6-0.5
		c0.6,0.1,1,0.4,1.4,0.8c0.4,0.4,0.6,0.9,0.7,1.4c0.1,0.5,0,1-0.3,1.4c-3.3,4.4-7,7.4-11.2,9c-4.1,1.7-9.3,2.5-15.4,2.5
		c-6.2,0-11.6-0.9-16.1-2.8c-4.5-1.9-8.2-4.5-11.2-7.8c-3-3.4-5.1-7.3-6.5-11.8c-1.4-4.5-2.1-9.4-2.1-14.7c0-5.1,0.9-9.9,2.6-14.5
		c1.7-4.6,4.1-8.5,7.2-11.8c3.1-3.3,6.8-6,11-7.9c4.2-2,9-3,14.1-3c4.4,0,8.3,0.8,11.9,2.3c3.6,1.5,6.6,3.6,9.1,6.2
		c2.5,2.6,4.4,5.8,5.8,9.5c1.4,3.7,2.1,7.6,2.1,11.9c0,2.2-0.8,3.3-2.3,3.3H985.2z M1013.6,136.3c1.4,0,2.3-0.5,2.5-1.6
		s0.3-2.3,0.3-3.7c0-2.2-0.3-4.3-1-6.3c-0.7-2-1.6-3.8-2.9-5.4c-1.2-1.6-2.7-2.8-4.5-3.7c-1.8-0.9-3.8-1.4-6.1-1.4
		c-2.8,0-5.2,0.5-7.2,1.5c-2,1-3.7,2.3-5.1,3.9c-1.4,1.6-2.5,3.5-3.2,5.7c-0.7,2.2-1.2,4.5-1.6,6.8c-0.2,1.2-0.3,2.3-0.2,3
		c0.1,0.8,0.3,1.2,0.7,1.2H1013.6z"/>
	<path class="st3" d="M1061.7,154.4c0,6.3,0.1,13.7,0.2,14.8c0.2,1.8,0.7,3.2,1.6,4.4c0.9,1.1,2.4,2,4.4,2.6c2,0.6,4.8,1.1,8.5,1.4
		c0.6,0.1,1.1,0.4,1.4,0.9c0.3,0.5,0.5,1,0.5,1.6c0,0.5-0.2,1-0.5,1.5c-0.3,0.5-0.8,0.7-1.4,0.7c-4.5,0-8.4-0.2-11.8-0.5
		c-3.4-0.4-6.7-0.5-9.8-0.5c-3.3,0-6.6,0.2-9.9,0.5c-3.3,0.4-6.6,0.5-9.9,0.5c-0.5,0-0.9-0.2-1.2-0.7c-0.3-0.5-0.5-1-0.5-1.5
		c0-0.6,0.2-1.2,0.5-1.6c0.3-0.5,0.8-0.8,1.4-0.9c2.9-0.3,5.2-0.8,6.8-1.4c1.6-0.6,2.8-1.5,3.5-2.6c0.7-1.1,1.2-2.4,1.3-4
		c0.2-1.6,0.2-3.6,0.2-6v-22.7c0-5.1-0.1-9.1-0.3-12c-0.2-3-0.7-5.2-1.5-6.8c-0.8-1.6-2-2.7-3.7-3.2c-1.7-0.5-3.9-0.9-6.8-1.1
		c-0.5,0-0.9-0.3-1.2-0.8c-0.3-0.5-0.4-1-0.4-1.6c0-0.5,0.1-1,0.4-1.6c0.3-0.5,0.7-0.8,1.3-0.8c2.1-0.2,4.9-0.4,8.6-0.7
		c3.7-0.3,7.4-0.9,11.3-1.9c1.4-0.4,2.6-0.5,3.6-0.2c0.9,0.3,1.3,1.2,1.2,2.6l-0.3,9.9c0,0.2,0,0.3,0.2,0.4c0.1,0.1,0.3,0,0.5-0.2
		c2.2-4.4,4.8-7.8,8-10.4c3.2-2.6,7.4-3.9,12.7-3.9c4.4,0,7.6,1.1,9.6,3.3c2.1,2.2,3.1,4.9,3.1,8.2c0,1.8-0.7,3.4-2,4.8
		c-1.3,1.5-3.3,2.2-5.8,2.2c-2.4,0-4-0.6-5-1.7c-0.9-1.1-1.4-2.4-1.4-3.7c0-1.5-0.3-2.6-0.9-3.4c-0.6-0.8-1.8-1.2-3.6-1.2
		c-2,0-3.8,0.6-5.4,1.9c-1.6,1.3-3,2.8-4.1,4.6c-1.1,1.8-2,3.6-2.6,5.4c-0.6,1.9-0.9,3.3-0.9,4.4
		C1061.6,133.4,1061.7,150.3,1061.7,154.4z"/>
	<g>
		<path class="st3" d="M1115.1,74.9v-2.1h15.2v2.1h-6.3v16.9h-2.5V74.9H1115.1z"/>
		<path class="st3" d="M1135.9,72.8l6,16l6-16h3.5v19h-2.4V76h-0.1l-5.9,15.8h-2.2l-5.9-15.8h-0.1v15.8h-2.4v-19H1135.9z"/>
	</g>
</g>
<!-- Code injected by live-server -->
<script type="text/javascript">
	// <![CDATA[  <-- For SVG support
	if ('WebSocket' in window) {
		(function () {
			function refreshCSS() {
				var sheets = [].slice.call(document.getElementsByTagName("link"));
				var head = document.getElementsByTagName("head")[0];
				for (var i = 0; i < sheets.length; ++i) {
					var elem = sheets[i];
					var parent = elem.parentElement || head;
					parent.removeChild(elem);
					var rel = elem.rel;
					if (elem.href && typeof rel != "string" || rel.length == 0 || rel.toLowerCase() == "stylesheet") {
						var url = elem.href.replace(/(&|\?)_cacheOverride=\d+/, '');
						elem.href = url + (url.indexOf('?') >= 0 ? '&' : '?') + '_cacheOverride=' + (new Date().valueOf());
					}
					parent.appendChild(elem);
				}
			}
			var protocol = window.location.protocol === 'http:' ? 'ws://' : 'wss://';
			var address = protocol + window.location.host + window.location.pathname + '/ws';
			var socket = new WebSocket(address);
			socket.onmessage = function (msg) {
				if (msg.data == 'reload') window.location.reload();
				else if (msg.data == 'refreshcss') refreshCSS();
			};
			if (sessionStorage && !sessionStorage.getItem('IsThisFirstTime_Log_From_LiveServer')) {
				console.log('Live reload enabled.');
				sessionStorage.setItem('IsThisFirstTime_Log_From_LiveServer', true);
			}
		})();
	}
	else {
		console.error('Upgrade your browser. This Browser is NOT supported WebSocket for Live-Reloading.');
	}
	// ]]>
</script></svg>
